HIERARCHY
ROOT Hips
{
	OFFSET 0.000000 0.000000 0.000000
	CHANNELS 6 Xposition Yposition Zposition Zrotation Yrotation Xrotation 
	JOINT LHipJoint
	{
		OFFSET 0.000000 0.000000 0.000000
		CHANNELS 3 Zrotation Yrotation Xrotation
		JOINT LeftUpLeg
		{
			OFFSET 1.363060 -1.794630 0.839290
			CHANNELS 3 Zrotation Yrotation Xrotation
			JOINT LeftLeg
			{
				OFFSET 2.448110 -6.726130 0.000000
				CHANNELS 3 Zrotation Yrotation Xrotation
				JOINT LeftFoot
				{
					OFFSET 2.562200 -7.039590 0.000000
					CHANNELS 3 Zrotation Yrotation Xrotation
					JOINT LeftToeBase
					{
						OFFSET 0.157640 -0.433110 2.322550
						CHANNELS 3 Zrotation Yrotation Xrotation
						End Site
						{
							OFFSET 0.000000 0.000000 0.000000
						}
					}
				}
			}
		}
	}
	JOINT RHipJoint
	{
		OFFSET 0.000000 0.000000 0.000000
		CHANNELS 3 Zrotation Yrotation Xrotation
		JOINT RightUpLeg
		{
			OFFSET -1.305520 -1.794630 0.839290
			CHANNELS 3 Zrotation Yrotation Xrotation
			JOINT RightLeg
			{
				OFFSET -2.542530 -6.985550 0.000000
				CHANNELS 3 Zrotation Yrotation Xrotation
				JOINT RightFoot
				{
					OFFSET -2.568260 -7.056230 0.000000
					CHANNELS 3 Zrotation Yrotation Xrotation
					JOINT RightToeBase
					{
						OFFSET -0.164730 -0.452590 2.363150
						CHANNELS 3 Zrotation Yrotation Xrotation
						End Site
						{
							OFFSET 0.000000 0.000000 0.000000
						}
					}
				}
			}
		}
	}
	JOINT LowerBack
	{
		OFFSET 0.000000 0.000000 0.000000
		CHANNELS 3 Zrotation Yrotation Xrotation
		JOINT Spine
		{
			OFFSET 0.028270 2.035590 -0.193380
			CHANNELS 3 Zrotation Yrotation Xrotation
			JOINT Spine1
			{
				OFFSET 0.056720 2.048850 -0.042750
				CHANNELS 3 Zrotation Yrotation Xrotation
				JOINT Neck
				{
					OFFSET 0.000000 0.000000 0.000000
					CHANNELS 3 Zrotation Yrotation Xrotation
					JOINT Neck1
					{
						OFFSET -0.054170 1.746240 0.172020
						CHANNELS 3 Zrotation Yrotation Xrotation
						JOINT Head
						{
							OFFSET 0.104070 1.761360 -0.123970
							CHANNELS 3 Zrotation Yrotation Xrotation
							End Site
							{
								OFFSET 0.000000 0.000000 0.000000
							}
						}
					}
				}
				JOINT LeftShoulder
				{
					OFFSET 0.000000 0.000000 0.000000
					CHANNELS 3 Zrotation Yrotation Xrotation
					JOINT LeftArm
					{
						OFFSET 3.362410 1.200890 -0.311210
						CHANNELS 3 Zrotation Yrotation Xrotation
						JOINT LeftForeArm
						{
							OFFSET 4.983000 -0.000000 -0.000000
							CHANNELS 3 Zrotation Yrotation Xrotation
							JOINT LeftHand
							{
								OFFSET 3.483560 -0.000000 -0.000000
								CHANNELS 3 Zrotation Yrotation Xrotation
								JOINT LeftFingerBase
								{
									OFFSET 0.000000 0.000000 0.000000
									CHANNELS 3 Zrotation Yrotation Xrotation
									JOINT LeftHandIndex1
									{
										OFFSET 0.715260 -0.000000 -0.000000
										CHANNELS 3 Zrotation Yrotation Xrotation
										End Site
										{
											OFFSET 0.000000 0.000000 0.000000
										}
									}
								}
								JOINT LThumb
								{
									OFFSET 0.000000 0.000000 0.000000
									CHANNELS 3 Zrotation Yrotation Xrotation
									End Site
									{
										OFFSET 0.000000 0.000000 0.000000
									}
								}
							}
						}
					}
				}
				JOINT RightShoulder
				{
					OFFSET 0.000000 0.000000 0.000000
					CHANNELS 3 Zrotation Yrotation Xrotation
					JOINT RightArm
					{
						OFFSET -3.136600 1.374050 -0.404650
						CHANNELS 3 Zrotation Yrotation Xrotation
						JOINT RightForeArm
						{
							OFFSET -5.241900 -0.000000 -0.000000
							CHANNELS 3 Zrotation Yrotation Xrotation
							JOINT RightHand
							{
								OFFSET -3.444170 -0.000000 -0.000000
								CHANNELS 3 Zrotation Yrotation Xrotation
								JOINT RightFingerBase
								{
									OFFSET 0.000000 0.000000 0.000000
									CHANNELS 3 Zrotation Yrotation Xrotation
									JOINT RightHandIndex1
									{
										OFFSET -0.622530 -0.000000 -0.000000
										CHANNELS 3 Zrotation Yrotation Xrotation
										End Site
										{
											OFFSET 0.000000 0.000000 0.000000
										}
									}
								}
								JOINT RThumb
								{
									OFFSET 0.000000 0.000000 0.000000
									CHANNELS 3 Zrotation Yrotation Xrotation
									End Site
									{
										OFFSET 0.000000 0.000000 0.000000
									}
								}
							}
						}
					}
				}
			}
		}
	}
}
MOTION
Frames: 11
Frame Time: 0.008333
10.525400 17.829550 49.674039 -177.115087 -17.562528 177.593601 -1.053365 3.451434 1.360058 -16.151262 -26.212267 -2.499041 -1.720329 9.119932 26.127570 -0.707303 5.139460 0.298944 3.911300 -12.041400 -35.878700 -2.555545 -3.284934 1.197673 28.240513 12.034231 -0.267985 2.405104 -8.006436 25.750940 6.520911 -27.380456 -27.958822 -1.874100 -8.598700 24.547900 4.993171 1.268618 9.064555 4.357269 2.538948 4.155050 -5.371855 0.769415 -12.570979 1.232839 16.067717 -14.859069 8.033808 21.303232 13.092704 0.856300 11.172900 5.344000 -2.233956 -10.122645 1.196332 -90.209705 5.374822 34.957944 22.790484 -22.850346 -6.439875 1.826488 1.189405 14.583116 6.513012 -38.255379 -3.278200 -7.125000 0.000000 0.000000 -15.448200 -8.865400 18.269800 0.224151 11.761673 2.981960 85.576971 -9.175429 50.282895 -22.782819 26.338212 -7.343150 1.038623 0.899610 4.037636 -41.858128 -63.435206 39.545700 7.125000 0.000000 0.000000 -174.050800 -9.590300 4.902100 
10.532734 17.835938 49.667888 -177.394065 -17.313205 178.034454 -1.095256 3.382021 1.318892 -16.214240 -26.011112 -2.783119 -1.769921 9.065532 25.921514 -0.845050 5.455518 0.534006 4.094700 -12.285400 -36.749200 -2.534329 -3.248460 1.171059 27.916529 12.423974 -0.551544 2.412041 -8.044997 25.769282 6.550140 -27.409451 -27.957372 -1.796200 -8.428100 24.022000 4.693555 1.467597 8.707671 4.193141 2.736819 3.903467 -5.277439 0.886822 -12.432313 1.178006 16.005110 -14.615988 8.095590 21.172134 12.944879 0.835800 11.104600 5.247200 -2.247911 -10.156970 1.212193 -90.202546 5.370360 34.959054 22.692145 -22.747880 -6.407492 1.901910 1.144013 14.859180 4.900216 -38.262554 -2.186800 -7.125000 0.000000 0.000000 -16.289500 -8.627700 19.286600 0.251878 11.737234 2.981541 85.704508 -9.284141 49.608591 -22.693442 26.240807 -7.310759 1.057804 0.887401 5.112303 -38.274886 -63.761744 36.150100 7.125000 0.000000 0.000000 -173.000000 -8.962600 5.869100 
10.541015 17.843035 49.661737 -177.393322 -17.051030 178.445095 -1.120339 3.328458 1.257659 -16.036893 -26.098667 -3.006377 -1.801538 9.027198 25.767085 -1.005870 5.839614 0.546652 4.052600 -12.230100 -36.550800 -2.510524 -3.210665 1.137455 27.872407 12.838170 -0.800840 2.442366 -8.055116 25.679869 6.578459 -27.432007 -27.885087 -1.800400 -8.437300 24.050400 4.531237 1.660286 8.336128 4.266793 2.944462 3.586364 -5.210947 0.993460 -12.288140 1.096828 15.971974 -14.314629 8.097736 21.095442 12.793959 0.800300 11.058300 5.150300 -2.274614 -10.185476 1.230312 -90.238728 5.457686 35.058834 22.618852 -22.651466 -6.374458 1.894967 1.155882 15.067153 5.341713 -38.309897 -2.485000 -7.125000 0.000000 0.000000 -16.066300 -8.748300 19.029600 0.263019 11.710286 2.991214 85.730129 -9.485400 49.048647 -22.628795 26.166765 -7.286197 1.077139 0.863378 6.228230 -34.203890 -63.869577 32.277600 7.125000 0.000000 0.000000 -171.899900 -8.164600 6.939200 
10.549295 17.850724 49.655704 -177.368597 -16.775529 178.838526 -1.154429 3.301940 1.195926 -15.882739 -26.404358 -3.093078 -1.845269 8.969689 25.549401 -1.331019 6.597329 0.511185 4.101600 -12.294400 -36.781500 -2.487348 -3.179105 1.111332 27.852966 13.196823 -1.069662 2.461838 -8.074754 25.610518 6.661185 -27.538406 -27.687234 -1.815300 -8.470300 24.151800 4.189422 1.680565 7.905978 4.363319 2.901082 3.322989 -4.975035 0.991623 -12.106080 1.608805 16.113840 -13.980058 7.813009 21.261011 12.710078 0.660300 11.138300 5.165100 -2.302016 -10.165079 1.233312 -90.227787 5.614135 34.680059 22.632153 -22.652110 -6.372015 1.883533 1.165162 15.189364 5.765939 -38.347716 -2.772900 -7.125000 0.000000 0.000000 -15.850100 -8.852800 18.778000 0.261619 11.728127 2.994262 85.701023 -9.526562 49.778550 -22.636701 26.197665 -7.295629 1.081293 0.868029 5.331785 -28.795365 -63.200422 27.056900 7.125000 0.000000 0.000000 -170.671600 -6.586200 8.310600 
10.557339 17.860898 49.649671 -177.399764 -16.543967 179.221793 -1.162896 3.231672 1.139127 -15.721632 -26.290477 -3.422771 -1.871379 8.940919 25.425799 -1.381236 6.723939 0.546146 4.190600 -12.409800 -37.197500 -2.458803 -3.140683 1.077055 27.775420 13.500814 -1.299293 2.494534 -8.073235 25.502071 6.758896 -27.764721 -27.682269 -1.746900 -8.317800 23.683500 3.829970 1.805991 7.659029 4.532144 3.010310 2.932630 -4.764051 1.061094 -12.072191 1.787150 16.155654 -13.565253 7.671675 21.290521 12.649113 0.569700 11.151100 5.123000 -2.334030 -10.150041 1.245039 -90.330969 5.848653 34.624273 22.673656 -22.695213 -6.397242 1.890084 1.161670 15.053350 5.447577 -38.421858 -2.563500 -7.125000 0.000000 0.000000 -16.019000 -8.874400 18.998600 0.264817 11.723488 3.007500 85.693258 -9.672783 49.395312 -22.680707 26.255278 -7.307465 1.080479 0.857751 5.324228 -23.734921 -62.744641 22.287200 7.125000 0.000000 0.000000 -169.368700 -5.443400 9.747900 
10.572244 17.880771 49.635239 -177.415231 -16.066759 179.975375 -1.143160 3.055889 1.049549 -15.298053 -25.644800 -4.330528 -1.893034 8.924187 25.313131 -1.203139 6.342489 0.756336 4.105000 -12.298800 -36.797300 -2.402896 -3.046294 1.000845 27.651873 14.143835 -1.754880 2.549011 -8.083891 25.338905 6.845484 -27.956659 -27.685153 -1.683600 -8.173300 23.241700 3.099475 2.054909 7.149467 5.007080 3.228710 2.241944 -4.316002 1.202322 -11.971415 1.820529 16.190114 -13.173029 7.603911 21.324965 12.768262 0.533800 11.176400 5.118600 -2.409626 -10.116444 1.258655 -90.647041 6.236616 34.428531 22.742313 -22.767237 -6.444296 1.926049 1.139445 14.964048 4.369235 -38.528308 -1.841600 -7.125000 0.000000 0.000000 -16.581400 -8.815800 19.706600 0.249532 11.729616 3.053483 85.512282 -10.011900 49.068620 -22.820977 26.424417 -7.365202 1.061550 0.855472 4.957659 -18.210657 -62.320922 17.173600 7.125000 0.000000 0.000000 -167.845900 -4.479400 11.433200 
10.573545 17.882072 49.635357 -177.321919 -15.980516 -179.943811 -1.128084 3.042666 1.029348 -15.174748 -25.647816 -4.393138 -1.901737 8.905812 25.257728 -1.194619 6.327656 0.803483 3.957400 -12.103600 -36.099300 -2.383339 -3.035112 0.987979 27.710858 14.233072 -1.792209 2.565339 -8.073682 25.281248 6.804959 -27.859473 -27.683590 -1.704500 -8.221300 23.388400 2.927971 2.070500 7.154795 5.296709 3.238217 2.016893 -4.177110 1.205941 -12.043851 1.914563 16.184794 -13.025196 7.497322 21.336172 12.954687 0.501400 11.190700 5.181600 -2.444899 -10.075128 1.251858 -90.876802 6.438523 34.214544 22.750816 -22.781440 -6.457390 1.955549 1.121355 14.994322 3.600069 -38.555538 -1.323600 -7.125000 0.000000 0.000000 -16.978800 -8.733100 20.199700 0.237696 11.745669 3.071694 85.372658 -10.197046 48.981456 -22.860522 26.471572 -7.358713 1.047601 0.848563 4.879800 -12.761146 -61.505169 12.167200 7.125000 0.000000 0.000000 -166.345100 -3.370000 13.215700 
10.573072 17.882072 49.635830 -177.242597 -15.963774 179.968219 -1.141247 3.098711 1.020598 -15.215951 -26.144002 -4.060916 -1.906138 8.894931 25.233519 -1.388621 6.767317 0.519055 3.866400 -11.980500 -35.662900 -2.384092 -3.058417 1.002837 27.806964 14.228748 -1.696026 2.573325 -8.052733 25.228906 6.814317 -27.866130 -27.624436 -1.686700 -8.180600 23.264000 2.966043 2.022128 7.138281 5.326373 3.179976 2.044345 -4.176844 1.171497 -12.024383 2.195106 16.216018 -12.857255 7.319543 21.379034 12.963712 0.419200 11.212800 5.214400 -2.455688 -10.062820 1.245271 -90.888921 6.450807 33.870095 22.594044 -22.595430 -6.382782 1.921839 1.165276 15.503745 5.137723 -38.905056 -2.377500 -7.125000 0.000000 0.000000 -16.217100 -9.317800 19.356300 0.241163 11.760361 3.056402 85.392451 -10.170169 49.075995 -22.756239 26.344711 -7.263483 1.042106 0.843000 5.107993 -7.408635 -60.154074 7.310300 7.125000 0.000000 0.000000 -15.167200 2.091500 -164.849900 
10.573309 17.883373 49.635239 -177.232895 -15.973715 179.904155 -1.139901 3.108865 1.026395 -15.236255 -26.162822 -4.000292 -1.902162 8.904281 25.261842 -1.442048 6.890281 0.409466 3.946900 -12.089400 -36.048800 -2.392362 -3.071449 1.005369 27.847422 14.213457 -1.621813 2.571237 -8.040842 25.202414 6.855111 -27.907479 -27.479562 -1.619700 -8.024500 22.788500 2.965349 1.993144 7.152081 5.280500 3.139900 2.020204 -4.181736 1.155602 -12.044645 2.317097 16.314648 -12.546808 7.335232 21.455761 12.785811 0.376100 11.250100 5.125800 -2.448370 -10.078956 1.256751 -90.851364 6.575055 33.628803 22.491549 -22.475999 -6.338367 1.882169 1.209204 16.011051 6.713852 -39.287096 -3.483400 -7.125000 0.000000 0.000000 -15.442600 -9.955500 18.504300 0.244452 11.745431 3.039083 85.571573 -9.952311 48.009749 -23.206260 26.917744 -7.463789 0.842591 0.953656 2.509157 6.855542 -59.805672 -5.317300 7.125000 0.000000 0.000000 -19.718400 4.422000 -160.653900 
10.575438 17.885503 49.635357 -177.260349 -15.989039 179.950647 -1.123595 3.061911 1.034375 -15.152933 -25.719701 -4.278741 -1.897983 8.914080 25.284880 -1.291288 6.553055 0.597829 4.064500 -12.245800 -36.607100 -2.395751 -3.058522 0.988908 27.812767 14.162789 -1.680349 2.564780 -8.043051 25.197303 6.868200 -27.850513 -27.289251 -1.636800 -8.064700 22.910800 2.880882 1.969048 7.139527 5.269274 3.095075 1.881631 -4.134895 1.142851 -12.079836 2.427878 16.419908 -12.103697 7.240871 21.549291 12.469614 0.280800 11.280800 4.986700 -2.438054 -10.089723 1.270163 -90.848131 6.772983 33.574169 22.535261 -22.529282 -6.362783 1.870152 1.217629 15.996590 6.947022 -39.419677 -3.656800 -7.125000 0.000000 0.000000 -15.333400 -10.122800 18.400400 0.248742 11.712565 3.038555 85.662391 -10.000496 47.348082 -23.358789 27.109120 -7.544663 0.769736 0.968751 2.518361 11.399745 -60.285038 -9.429000 7.125000 0.000000 0.000000 -21.055700 4.426700 -159.141300 
10.574728 17.885148 49.636185 -177.356759 -16.015991 179.988445 -1.131703 3.059498 1.021938 -15.266516 -25.785956 -4.233760 -1.898900 8.914661 25.288660 -1.265537 6.488379 0.592924 4.058200 -12.237400 -36.577200 -2.389701 -3.061614 0.993308 27.673034 14.060570 -1.740294 2.559167 -8.044350 25.207925 6.820335 -27.684204 -27.224909 -1.725700 -8.269600 23.536000 2.755468 1.923708 7.130410 5.244347 3.021168 1.779184 -4.055902 1.115068 -12.110320 2.665114 16.486889 -11.724716 7.038623 21.623377 12.306175 0.163900 11.307600 4.932400 -2.440151 -10.078553 1.271436 -90.881008 6.910103 33.452232 22.532881 -22.524748 -6.361287 1.865699 1.222221 16.024260 7.083152 -39.462495 -3.755000 -7.125000 0.000000 0.000000 -15.267700 -10.188500 18.330100 0.266869 11.698048 3.030826 85.645823 -10.250203 47.795098 -23.177388 26.841729 -7.397635 0.912739 0.923015 3.559368 4.252228 -58.439566 -2.946400 7.125000 0.000000 0.000000 -18.978600 5.432000 -161.854600 
